<?xml version="1.0" encoding="UTF-8" standalone="no"?>
<!-- Created with Inkscape (http://www.inkscape.org/) -->
<!-- translate-xy="282,129.17213" -->
<svg
   xmlns:dc="http://purl.org/dc/elements/1.1/"
   xmlns:cc="http://creativecommons.org/ns#"
   xmlns:rdf="http://www.w3.org/1999/02/22-rdf-syntax-ns#"
   xmlns:svg="http://www.w3.org/2000/svg"
   xmlns="http://www.w3.org/2000/svg"
   xmlns:sodipodi="http://sodipodi.sourceforge.net/DTD/sodipodi-0.dtd"
   xmlns:inkscape="http://www.inkscape.org/namespaces/inkscape"
   width="678.92535"
   height="645.77332"
   viewBox="0 0 678.92535 645.77332"
   version="1.1"
   id="svg2216"
   inkscape:version="0.92.3 (2405546, 2018-03-11)"
   sodipodi:docname="state-texas-monogram.svg">
  <defs
     id="defs2210" />
  <sodipodi:namedview
     id="base"
     pagecolor="#ffffff"
     bordercolor="#666666"
     borderopacity="1.0"
     inkscape:pageopacity="0.0"
     inkscape:pageshadow="2"
     inkscape:zoom="0.5"
     inkscape:cx="288.7122"
     inkscape:cy="171.64283"
     inkscape:document-units="px"
     inkscape:current-layer="layer1"
     showgrid="false"
     units="px"
     inkscape:window-width="1280"
     inkscape:window-height="737"
     inkscape:window-x="-8"
     inkscape:window-y="-8"
     inkscape:window-maximized="1"
     fit-margin-top="10"
     fit-margin-left="10"
     fit-margin-bottom="10"
     fit-margin-right="10"
     inkscape:showpageshadow="false"
     showguides="true"
     inkscape:snap-global="true"
     scale-x="1" />
  <metadata
     id="metadata2213">
    <rdf:RDF>
      <cc:Work
         rdf:about="">
        <dc:format>image/svg+xml</dc:format>
        <dc:type
           rdf:resource="http://purl.org/dc/dcmitype/StillImage" />
        <dc:title></dc:title>
      </cc:Work>
    </rdf:RDF>
  </metadata>
  <g
     inkscape:label="Layer 1"
     inkscape:groupmode="layer"
     id="layer1"
     transform="translate(282.56391,129.17213)">
    <g
       id="g827"
       transform="matrix(3.772496,0,0,3.772496,15.460604,-497.04077)">
      <path
         id="path829"
         transform="matrix(0.26458333,0,0,0.26458333,3.8987838,179.36097)"
         d="m -85.720703,-297.82617 c -28.861477,0.008 -39.543037,0.10349 -39.675777,0.31836 -0.13028,0.21082 -0.2611,34.67643 -0.28907,76.58984 -0.0281,41.91341 -0.19803,82.68514 -0.37695,90.60352 -0.17894,7.91833 -0.41268,31.345886 -0.51953,52.062497 l -0.19336,37.666015 -0.77149,1.339844 c -0.97768,1.698444 -2.96099,3.688372 -4.68554,4.701172 l -1.33789,0.78711 -83.40235,0.101562 c -70.08684,0.08579 -83.48984,0.176194 -83.95507,0.5625 -0.60959,0.505965 -0.7463,1.892577 -0.21875,2.21875 0.49446,0.30565 0.38721,1.911255 -0.17774,2.658203 -1.09816,1.451906 -0.37918,3.345085 2.07813,5.472656 2.07998,1.80087 2.75766,2.457637 3.83789,3.72461 0.64184,0.752806 1.17007,1.035156 1.9414,1.035156 0.89467,0 1.55309,0.496148 4.22071,3.185547 2.86156,2.884913 4.84179,5.7262769 4.84179,6.9492186 0,0.2461984 0.52368,0.9554601 1.16407,1.5761719 0.6514,0.6313701 1.40184,1.8468207 1.70507,2.7597656 0.39693,1.1950866 0.86979,1.8466209 1.76563,2.4355469 0.6728,0.44228031 1.60017,1.11095768 2.06055,1.484375 0.46036,0.37337953 1.03347,0.6817673 1.27343,0.6855469 0.23995,0.00412 0.99048,0.3853566 1.66797,0.8457031 0.6775,0.460611 1.36024,0.8359375 1.51758,0.8359375 0.87608,0 5.93055,4.0079034 9.27539,7.3554685 0.76552,0.766161 1.62534,1.6083 2.46289,2.429688 h 599.33008 c -0.99325,-2.24317 -2.23584,-5.2562996 -3.46875,-8.4453128 -0.7475,-1.9335307 -1.8183,-4.34462183 -2.37891,-5.3574218 -2.90277,-5.2439055 -4.1056,-8.6377688 -4.86328,-13.7265624 -0.80138,-5.382652 -1.52444,-6.989693 -5.88281,-13.058594 -0.85961,-1.196938 -2.09713,-3.156539 -2.75,-4.353515 -2.29366,-4.205292 -2.18963,-2.292942 -2.57227,-46.681641 -0.38839,-45.034017 -0.10781,-41.002247 -3.05859,-44.015627 -2.56113,-2.61573 -3.67414,-3.07543 -6.85742,-2.83203 -3.46513,0.26506 -8.10986,-0.92986 -12.16602,-3.12891 -2.88034,-1.56162 -8.02068,-3.91016 -11.37304,-5.19531 -2.86216,-1.09716 -7.71315,-4.11728 -13.23633,-8.24219 -4.5791,-3.41979 -5.64041,-3.85508 -9.375,-3.84375 -2.37205,0.008 -3.65527,0.21417 -6.02735,0.96875 -3.53941,1.12559 -5.42989,1.19059 -9.87695,0.3379 -3.86471,-0.74102 -8.05287,-0.57787 -10.56445,0.4121 -1.92737,0.75965 -7.17418,1.60264 -12.05078,1.9375 -2.79712,0.192 -3.68059,0.40143 -5.50782,1.30274 -1.19695,0.5904 -2.68946,1.27462 -3.3164,1.51953 -0.62695,0.24499 -2.26338,1.08367 -3.63477,1.86523 -1.37135,0.7815 -3.07895,1.52164 -3.79492,1.64258 -1.98539,0.33544 -6.43556,-0.73825 -8.00586,-1.93164 -0.71097,-0.54036 -1.86721,-1.42069 -2.57031,-1.95508 -0.91061,-0.6921 -2.43356,-1.26019 -5.29102,-1.97656 -2.20636,-0.55313 -4.46559,-1.00761 -5.02148,-1.00976 -0.55589,-0.002 -2.48459,-0.37726 -4.28516,-0.83594 -4.98997,-1.27121 -6.56637,-1.10798 -10.04492,1.03906 -3.59943,2.22172 -7.92287,2.48324 -12.29297,0.74609 -1.52424,-0.60589 -3.10714,-0.92669 -5.28125,-1.07031 -3.27916,-0.21649 -4.8216,-0.76985 -7.10742,-2.55273 -2.39391,-1.86709 -3.215,-2.10934 -6.57227,-1.9336 -2.67567,0.13996 -3.4395,0.3263 -5.66015,1.38086 l -2.56641,1.22071 -2.15625,-0.5 c -1.18571,-0.27496 -2.56533,-0.71464 -3.06445,-0.97657 -1.28631,-0.67521 -3.19755,-2.7319 -4.84766,-5.21679 -1.29519,-1.95035 -1.79498,-2.36149 -5.84375,-4.79883 l -4.42969,-2.66602 -3.60546,0.7168 c -5.05547,1.00702 -10.054052,0.97738 -14.201176,-0.084 -1.723514,-0.44111 -4.486753,-0.90754 -6.140625,-1.03907 -1.746036,-0.13878 -4.344754,-0.6528 -6.195313,-1.22461 -1.75285,-0.54168 -4.617772,-1.299 -6.367187,-1.68164 -1.749392,-0.38286 -3.563126,-0.8896 -4.03125,-1.12695 -1.954186,-0.99084 -4.998547,-3.61308 -7.134766,-6.14453 -1.910441,-2.26386 -2.685933,-2.90283 -4.763672,-3.92969 -3.052909,-1.50882 -6.449011,-1.88384 -9.042969,-1 -1.852456,0.63114 -3.915289,0.68878 -6.626953,0.1875 -3.58583,-0.66289 -4.802361,-1.4043 -11.130859,-6.78711 -1.48902,-1.26652 -3.970161,-4.60333 -5.267578,-7.08398 l -1.052734,-2.01172 -0.167969,-53.57031 -0.166016,-53.57032 -74.644531,-0.084 c -13.942937,-0.0159 -25.582634,-0.0222 -35.203125,-0.0195 z M -207.70898,72.558594 c 0.81307,2.238367 1.06752,4.365441 1.3164,8.28125 0.35987,5.662072 1.24447,8.509225 5.02539,16.183594 3.22094,6.537752 5.99933,10.362982 9.24414,12.728512 3.27444,2.38711 8.84219,6.88426 12.34766,9.97266 4.20851,3.70779 5.35946,4.43375 9.99023,6.30469 5.45209,2.20274 19.59844,9.95488 27.27735,14.94726 4.32822,2.81394 8.47166,3.43435 11.89062,1.7793 4.72777,-2.28869 13.49071,-13.70029 14.80664,-19.28125 0.26052,-1.10491 0.86867,-3.06443 1.35157,-4.35352 0.48291,-1.289 1.31829,-3.61197 1.85742,-5.16211 1.98176,-5.69812 3.31051,-8.00547 6.22656,-10.82031 2.50769,-2.42056 5.44961,-4.26197 6.822266,-4.269529 0.295101,-0.0018 2.133524,-0.756853 4.085937,-1.677735 5.139897,-2.424491 9.384475,-3.256123 11.845703,-2.320312 3.153377,1.199055 7.466504,1.980722 10.986328,1.988281 2.025634,0.0049 5.03802,0.235057 6.695313,0.511719 1.657334,0.276586 5.57459,0.640846 8.705078,0.810547 7.405268,0.401159 8.969401,0.931223 12.5625,4.257809 1.132281,1.04822 2.862831,2.97031 3.845703,4.27149 1.914951,2.53519 7.779986,8.11988 12.923828,12.30468 3.716077,3.02336 13.071337,12.45486 14.666016,14.78516 1.374801,2.00901 3.6441961,6.83017 4.9882811,10.59961 0.558121,1.56522 1.4629265,3.90041 2.0117188,5.18945 1.7345125,4.0743 7.6457415,16.38806 9.09375,18.94336 1.281476,2.26145 3.7581656,8.29659 4.8242187,11.75391 1.2639103,4.09901 2.1743085,5.3309 10.7031254,14.49414 4.714907,5.06559 5.319873,5.91679 8.917968,12.56445 4.283615,7.91422 6.351695,10.57653 10.71875,13.80274 3.187741,2.35495 7.708922,7.0061 8.716797,8.96484 0.613796,1.19278 0.828831,2.32336 1.029297,5.43164 0.261513,4.05789 1.316256,10.02034 2.201172,12.4375 0.278313,0.76014 0.783419,3.41636 1.123047,5.90235 0.715,5.23426 1.567347,7.60941 4.144531,11.55078 4.084963,6.24729 5.191793,8.47828 7.03711,14.18945 1.65332,5.11676 3.267638,9.14489 4.261718,10.63281 2.127969,3.18516 6.51182,6.55819 9.546875,7.34766 1.072271,0.27893 3.0798,1.12415 4.460938,1.87695 6.733693,3.67072 11.810334,6.15059 14.357422,7.01172 3.104965,1.04973 5.994849,2.54795 9.666019,5.01367 3.20401,2.15199 6.66698,3.87396 9.02539,4.48828 1.31962,0.34371 3.63018,0.49805 7.45898,0.49805 11.15828,0 13.93994,0.86864 21.87891,6.82227 1.68764,1.26557 3.36985,2.43116 3.73828,2.59179 0.36831,0.1629 2.02626,0.24413 3.68359,0.18555 2.49812,-0.088 3.45306,-0.29243 5.58789,-1.19336 4.04544,-1.70733 6.9486,-3.93349 8.8418,-6.78125 1.93857,-2.91598 1.95746,-3.28083 0.64648,-11.67187 -1.12314,-7.18867 -2.81791,-14.7396 -5.03711,-22.42969 -2.27818,-7.89464 -3.00835,-10.81069 -3.66406,-14.62696 -1.32429,-7.70796 -1.26933,-15.38817 0.16406,-22.5371 1.2562,-6.26499 4.68598,-15.81235 8.14258,-22.66993 1.36855,-2.71502 8.12228,-13.75133 10.52735,-17.20117 4.02284,-5.77043 10.87124,-12.07386 19.58789,-18.0293 2.98352,-2.03841 7.45929,-5.4488 9.94531,-7.58007 6.17625,-5.29489 8.26933,-6.65772 17.74414,-11.54102 4.51162,-2.32532 11.02078,-5.90349 14.46484,-7.95312 3.44411,-2.04968 7.28737,-4.24371 8.53907,-4.875 5.52379,-2.78608 9.38292,-5.7588 16.16015,-12.44532 8.00243,-7.8952 7.77509,-7.70074 13.73633,-11.71679 3.7298,-2.51282 5.98357,-4.36625 9.72461,-7.99414 7.79391,-7.55804 7.74275,-7.52165 15.93945,-11.28711 9.72554,-4.46774 11.56945,-5.18349 15.28907,-5.94336 3.76266,-0.76868 4.20752,-0.98461 5.55468,-2.68555 1.86647,-2.35661 2.3585,-3.88921 2.37891,-7.406249 0.0217,-3.766829 0.58456,-5.646263 2.55469,-8.53711 0.75297,-1.104869 1.90413,-3.070394 2.55664,-4.367187 2.24924,-4.470056 3.06964,-7.996302 2.75,-12.0625 z"
         style="fill:#0080c0;fill-opacity:1;stroke:#000000;stroke-width:3;stroke-miterlimit:4;stroke-dasharray:none;stroke-opacity:1"
         inkscape:connector-curvature="0" />
      <rect
         y="182.49951"
         x="-71.793938"
         height="0.45251283"
         width="169.61899"
         id="rect814"
         style="fill:#123456;fill-opacity:1;stroke:#000000;stroke-width:0.98410082;stroke-miterlimit:4;stroke-dasharray:none;stroke-opacity:1" />
      <rect
         style="fill:#123456;fill-opacity:1;stroke:#000000;stroke-width:0.98410082;stroke-miterlimit:4;stroke-dasharray:none;stroke-opacity:1"
         id="rect818"
         width="169.61899"
         height="0.45251283"
         x="-71.793938"
         y="198.26445" />
    </g>
  </g>
<g transform="translate(60,151.17213) scale(0.8, 0.9)"> 
<g
       aria-label="Y"
       style="font-style:normal;font-weight:normal;font-size:10.58333397px;line-height:1.25;font-family:sans-serif;letter-spacing:0px;word-spacing:0px;fill:#010101;fill-opacity:1;stroke:none;stroke-width:0.26458335"
       id="text826">
      <path
         d="m 36.3641,259.43328 q -4.608,0 -7.488,-1.872 -2.88,-1.872 -2.88,-5.256 0,-2.304 1.44,-4.104 1.44,-1.728 4.032,-2.304 -0.792,3.6 -0.792,4.896 0,2.952 1.584,4.536 1.656,1.584 4.968,1.584 5.184,0 8.28,-3.672 3.096,-3.672 4.464,-8.568 1.44,-4.896 2.736,-12.168 1.008,-5.472 1.512,-7.2 -3.024,4.896 -6.696,7.56 -3.672,2.664 -8.352,2.664 -4.536,0 -6.696,-2.52 -2.16,-2.52 -2.16,-6.696 0,-2.376 0.576,-5.112 0.576,-2.808 1.8,-7.416 1.08,-4.104 1.656,-6.696 0.576,-2.664 0.576,-4.752 0,-5.184 -3.888,-5.184 -2.448,0 -4.104,1.872 -1.656,1.8 -2.52,4.536 -0.792,2.664 -0.792,5.328 0,1.08 0.144,1.872 0.216,0.792 0.72,2.16 -3.312,0 -4.896,-1.512 -1.512,-1.512 -1.512,-4.032 0,-2.952 1.944,-6.048 1.944,-3.096 5.256,-5.112 3.384,-2.088 7.344,-2.088 4.104,0 6.264,2.232 2.16,2.232 2.16,5.688 0,1.512 -0.504,3.672 -0.432,2.16 -1.512,6.048 -1.296,4.752 -1.944,7.632 -0.648,2.88 -0.648,5.472 0,6.768 5.112,6.768 4.608,0 8.568,-4.896 3.96,-4.968 6.48,-12.384 0.432,-1.152 0.936,-2.88 0.504,-1.728 0.72,-2.592 2.232,-7.272 3.816,-11.016 1.584,-3.744 3.6,-3.744 0.864,0 2.232,0.792 1.44,0.72 2.664,1.944 -2.664,4.104 -4.176,7.704 -1.512,3.528 -3.024,9 -1.512,5.472 -4.68,18.504 -1.944,7.848 -4.392,13.68 -2.376,5.76 -6.768,9.72 -4.392,3.96 -11.16,3.96 z"
         style="font-style:normal;font-variant:normal;font-weight:bold;font-stretch:normal;font-size:72px;font-family:'Dancing Script';-inkscape-font-specification:'Dancing Script Bold';fill:#010101;fill-opacity:1;stroke-width:0.26458335"
         id="path11" />
    </g>

</g> 

<g transform="translate(100.24,151.17213) scale(0.8, 0.9)"> 
<g
       aria-label="O"
       style="font-style:normal;font-weight:normal;font-size:10.58333397px;line-height:1.25;font-family:sans-serif;letter-spacing:0px;word-spacing:0px;fill:#010101;fill-opacity:1;stroke:none;stroke-width:0.26458335"
       id="text826">
      <path
         d="m 33.1961,252.23328 q -4.248,0 -7.704,-2.232 -3.456,-2.16 -5.472,-6.264 -1.944,-4.104 -1.944,-9.576 0,-9.072 4.536,-18.432 4.608,-9.36 11.952,-15.408 7.344,-6.12 15.048,-6.12 2.952,0 4.896,2.016 -1.152,-0.144 -2.088,-0.144 -6.048,0 -12.384,6.048 -6.264,6.048 -10.368,15.12 -4.104,9.072 -4.104,17.352 0,6.192 2.448,10.224 2.52,3.96 7.704,3.96 6.264,0 11.448,-5.976 5.256,-5.976 8.208,-14.832 3.024,-8.928 3.024,-16.992 0,-3.96 -0.792,-7.128 -0.72,-3.24 -2.448,-3.24 -1.512,0 -3.528,2.592 -1.944,2.52 -3.6,6.12 -1.656,3.6 -2.232,6.48 -4.536,-0.936 -4.536,-4.176 0,-2.52 2.376,-5.832 2.376,-3.312 5.688,-5.688 3.312,-2.448 5.976,-2.448 3.816,0 5.328,4.824 1.512,4.824 1.512,11.088 0,11.52 -4.536,20.376 -4.536,8.784 -11.304,13.536 -6.696,4.752 -13.104,4.752 z"
         style="font-style:normal;font-variant:normal;font-weight:bold;font-stretch:normal;font-size:72px;font-family:'Dancing Script';-inkscape-font-specification:'Dancing Script Bold';fill:#010101;fill-opacity:1;stroke-width:0.26458335"
         id="path11" />
    </g>

</g> 

<g transform="translate(138,151.17213) scale(0.8, 0.9)"> 
<g
       aria-label="U"
       style="font-style:normal;font-weight:normal;font-size:10.58333397px;line-height:1.25;font-family:sans-serif;letter-spacing:0px;word-spacing:0px;fill:#010101;fill-opacity:1;stroke:none;stroke-width:0.26458335"
       id="text826">
      <path
         d="m 58.1081,253.09728 q -2.664,0 -4.608,-2.376 -1.872,-2.304 -1.872,-5.688 l 0.144,-3.744 q -5.976,11.016 -15.336,11.016 -4.824,0 -7.56,-2.88 -2.664,-2.88 -2.664,-8.064 0,-3.456 1.008,-7.416 1.008,-3.96 3.168,-10.584 2.16,-6.696 3.312,-11.232 1.152,-4.536 1.152,-8.496 0,-6.48 -3.888,-6.48 -2.376,0 -4.032,1.944 -1.656,1.944 -2.52,4.608 -0.792,2.664 -0.792,4.608 0,2.232 0.936,4.608 -3.312,0 -4.896,-1.512 -1.512,-1.512 -1.512,-4.032 0,-2.952 1.944,-6.048 1.944,-3.096 5.256,-5.112 3.384,-2.016 7.344,-2.016 4.248,0 6.264,2.448 2.088,2.448 2.088,6.84 0,3.528 -1.152,8.136 -1.08,4.536 -3.168,11.16 -2.16,6.912 -3.168,10.872 -0.936,3.888 -0.936,6.912 0,3.6 1.44,5.688 1.44,2.16 4.536,2.16 3.672,0 6.696,-2.952 3.024,-2.952 5.04,-7.272 2.016,-4.32 3.024,-8.568 3.96,-16.2 6.984,-25.776 3.024,-9.648 5.832,-9.648 0.72,0 1.944,0.792 1.296,0.72 2.664,2.016 -1.368,1.008 -4.752,9.72 -3.312,8.712 -5.976,19.08 -2.592,10.368 -2.592,16.992 0,3.024 0.648,4.536 0.648,1.584 2.088,2.16 1.44,0.648 4.032,0.648 -0.792,1.296 -2.664,2.088 -1.8,0.864 -3.456,0.864 z"
         style="font-style:normal;font-variant:normal;font-weight:bold;font-stretch:normal;font-size:72px;font-family:'Dancing Script';-inkscape-font-specification:'Dancing Script Bold';fill:#010101;fill-opacity:1;stroke-width:0.26458335"
         id="path11" />
    </g>

</g> 

<g transform="translate(181.2,151.17213) scale(0.8, 0.9)"> 
<g
       aria-label="R"
       style="font-style:normal;font-weight:normal;font-size:10.58333397px;line-height:1.25;font-family:sans-serif;letter-spacing:0px;word-spacing:0px;fill:#010101;fill-opacity:1;stroke:none;stroke-width:0.26458335"
       id="text826">
      <path
         d="m 52.1321,254.68128 q -2.664,0 -6.624,-4.536 -3.96,-4.464 -7.92,-10.8 -3.96,-6.336 -6.768,-12.024 -1.296,4.464 -4.32,15.264 l -2.736,9.72 q -2.232,0 -4.032,-1.224 -1.728,-1.152 -1.728,-2.952 0,-0.864 0.432,-2.232 0.432,-1.368 0.576,-1.728 5.544,-16.848 8.64,-25.272 3.168,-8.496 9,-21.816 -3.888,0.792 -8.208,3.096 -0.432,0.144 -1.08,0.504 -0.648,0.288 -0.936,0.288 -0.648,0 -1.8,-1.008 -1.08,-1.008 -1.08,-1.8 4.32,-1.728 8.568,-2.88 4.248,-1.152 8.784,-1.152 4.752,0 9.216,1.512 4.536,1.44 7.488,4.608 2.952,3.096 2.952,7.776 0,6.192 -4.968,9.648 -4.896,3.456 -11.088,4.68 -6.12,1.224 -11.232,1.368 l 1.872,2.952 q 3.456,5.544 6.048,9.216 2.592,3.672 6.336,7.704 3.816,3.96 9,7.92 -0.288,1.368 -1.728,2.232 -1.368,0.936 -2.664,0.936 z m -19.656,-33.12 q 9.144,-0.648 15.624,-4.392 6.48,-3.816 6.48,-10.584 0,-5.112 -3.672,-7.416 -3.672,-2.376 -9.216,-2.52 -4.032,8.064 -9.216,24.912 z"
         style="font-style:normal;font-variant:normal;font-weight:bold;font-stretch:normal;font-size:72px;font-family:'Dancing Script';-inkscape-font-specification:'Dancing Script Bold';fill:#010101;fill-opacity:1;stroke-width:0.26458335"
         id="path11" />
    </g>

</g> 

<g transform="translate(216,151.17213) scale(0.8, 0.9)"> 
</g> 

<g transform="translate(240.8,151.17213) scale(0.8, 0.9)"> 
<g
       aria-label="L"
       style="font-style:normal;font-weight:normal;font-size:10.58333397px;line-height:1.25;font-family:sans-serif;letter-spacing:0px;word-spacing:0px;fill:#010101;fill-opacity:1;stroke:none;stroke-width:0.26458335"
       id="text826">
      <path
         d="m 47.2361,252.23328 q -2.952,0 -6.696,-1.296 -3.672,-1.296 -9.432,-3.744 l -3.456,-1.512 q -3.888,4.104 -8.352,4.104 -2.376,0 -4.248,-1.08 -1.872,-1.08 -2.88,-2.664 -1.008,-1.512 -1.008,-2.952 0,-1.584 1.44,-2.592 1.368,-1.008 4.464,-1.008 3.528,0 9.072,1.44 1.656,-3.024 3.168,-7.2 1.584,-4.176 3.6,-10.584 l 1.8,-5.544 q -3.528,-1.152 -5.544,-3.312 -1.944,-2.16 -1.944,-4.536 0,-2.304 1.656,-4.248 1.728,-1.944 4.392,-1.944 -1.44,1.872 -1.44,4.896 0,2.232 1.008,3.96 1.08,1.656 2.736,2.664 3.24,-9.792 6.912,-15.336 3.672,-5.616 9,-5.616 3.024,0 5.472,1.872 2.52,1.8 2.52,5.904 0,3.672 -2.088,7.56 -2.016,3.816 -6.336,6.48 -4.32,2.664 -10.728,2.664 -2.592,7.848 -4.896,13.608 -2.304,5.76 -4.968,9.864 6.48,1.944 11.016,3.096 4.608,1.08 8.064,1.08 1.656,0 3.096,-0.36 1.512,-0.36 3.24,-1.224 -1.44,3.96 -3.528,5.76 -2.088,1.8 -5.112,1.8 z m -6.12,-36 q 3.888,-0.288 6.912,-3.024 3.024,-2.808 4.68,-6.48 1.728,-3.744 1.728,-6.552 0,-3.24 -2.376,-3.24 -2.88,0 -5.328,4.896 -2.448,4.824 -5.616,14.4 z m -22.536,30.888 q 1.656,0 2.736,-0.72 1.152,-0.648 2.592,-2.16 -5.112,-1.872 -7.56,-1.872 -1.296,0 -1.944,0.504 -0.648,0.432 -0.648,1.224 0,1.224 1.44,2.088 1.44,0.936 3.384,0.936 z"
         style="font-style:normal;font-variant:normal;font-weight:bold;font-stretch:normal;font-size:72px;font-family:'Dancing Script';-inkscape-font-specification:'Dancing Script Bold';fill:#010101;fill-opacity:1;stroke-width:0.26458335"
         id="path11" />
    </g>

</g> 

<g transform="translate(277.12,151.17213) scale(0.8, 0.9)"> 
<g
       aria-label="O"
       style="font-style:normal;font-weight:normal;font-size:10.58333397px;line-height:1.25;font-family:sans-serif;letter-spacing:0px;word-spacing:0px;fill:#010101;fill-opacity:1;stroke:none;stroke-width:0.26458335"
       id="text826">
      <path
         d="m 33.1961,252.23328 q -4.248,0 -7.704,-2.232 -3.456,-2.16 -5.472,-6.264 -1.944,-4.104 -1.944,-9.576 0,-9.072 4.536,-18.432 4.608,-9.36 11.952,-15.408 7.344,-6.12 15.048,-6.12 2.952,0 4.896,2.016 -1.152,-0.144 -2.088,-0.144 -6.048,0 -12.384,6.048 -6.264,6.048 -10.368,15.12 -4.104,9.072 -4.104,17.352 0,6.192 2.448,10.224 2.52,3.96 7.704,3.96 6.264,0 11.448,-5.976 5.256,-5.976 8.208,-14.832 3.024,-8.928 3.024,-16.992 0,-3.96 -0.792,-7.128 -0.72,-3.24 -2.448,-3.24 -1.512,0 -3.528,2.592 -1.944,2.52 -3.6,6.12 -1.656,3.6 -2.232,6.48 -4.536,-0.936 -4.536,-4.176 0,-2.52 2.376,-5.832 2.376,-3.312 5.688,-5.688 3.312,-2.448 5.976,-2.448 3.816,0 5.328,4.824 1.512,4.824 1.512,11.088 0,11.52 -4.536,20.376 -4.536,8.784 -11.304,13.536 -6.696,4.752 -13.104,4.752 z"
         style="font-style:normal;font-variant:normal;font-weight:bold;font-stretch:normal;font-size:72px;font-family:'Dancing Script';-inkscape-font-specification:'Dancing Script Bold';fill:#010101;fill-opacity:1;stroke-width:0.26458335"
         id="path11" />
    </g>

</g> 

<g transform="translate(314.88,151.17213) scale(0.8, 0.9)"> 
<g
       aria-label="G"
       style="font-style:normal;font-weight:normal;font-size:10.58333397px;line-height:1.25;font-family:sans-serif;letter-spacing:0px;word-spacing:0px;fill:#010101;fill-opacity:1;stroke:none;stroke-width:0.26458335"
       id="text826">
      <path
         d="m 50.9081,252.66528 q -2.952,-0.36 -3.96,-2.016 -0.936,-1.656 -0.936,-4.032 0,-0.936 0.072,-1.44 -5.832,7.056 -13.176,7.056 -4.104,0 -7.488,-2.16 -3.384,-2.16 -5.4,-6.264 -1.944,-4.104 -1.944,-9.648 0,-9.072 4.536,-18.432 4.608,-9.36 11.664,-15.408 7.128,-6.12 14.184,-6.12 4.392,0 6.48,2.448 2.088,2.376 2.088,6.048 0,2.592 -0.936,5.112 -0.936,2.52 -2.52,4.176 -1.512,1.584 -3.312,1.584 -0.936,0 -1.656,-0.504 -0.72,-0.576 -1.368,-1.872 1.08,-0.72 2.448,-2.592 1.368,-1.872 2.304,-4.032 1.008,-2.16 1.008,-3.816 0,-1.512 -1.008,-2.448 -0.936,-0.936 -2.88,-0.936 -5.256,0 -10.944,6.192 -5.616,6.12 -9.432,15.048 -3.744,8.856 -3.744,16.344 0,4.248 1.296,7.416 1.296,3.096 3.456,4.752 2.232,1.656 4.896,1.656 3.744,0 6.84,-3.096 3.168,-3.168 5.112,-7.92 1.944,-4.752 2.376,-9.504 -3.528,-0.72 -7.704,-0.72 -1.296,0 -4.752,0.144 0.648,-2.52 2.016,-3.672 1.44,-1.224 3.744,-1.224 1.728,0 3.528,0.504 1.8,0.432 4.536,1.368 3.024,1.152 5.184,1.584 -3.168,9.792 -4.032,13.104 -0.792,3.24 -0.792,6.552 l 0.072,3.384 q 0.144,2.016 0.144,3.384 z"
         style="font-style:normal;font-variant:normal;font-weight:bold;font-stretch:normal;font-size:72px;font-family:'Dancing Script';-inkscape-font-specification:'Dancing Script Bold';fill:#010101;fill-opacity:1;stroke-width:0.26458335"
         id="path11" />
    </g>

</g> 

<g transform="translate(348.48,151.17213) scale(0.8, 0.9)"> 
<g
       aria-label="O"
       style="font-style:normal;font-weight:normal;font-size:10.58333397px;line-height:1.25;font-family:sans-serif;letter-spacing:0px;word-spacing:0px;fill:#010101;fill-opacity:1;stroke:none;stroke-width:0.26458335"
       id="text826">
      <path
         d="m 33.1961,252.23328 q -4.248,0 -7.704,-2.232 -3.456,-2.16 -5.472,-6.264 -1.944,-4.104 -1.944,-9.576 0,-9.072 4.536,-18.432 4.608,-9.36 11.952,-15.408 7.344,-6.12 15.048,-6.12 2.952,0 4.896,2.016 -1.152,-0.144 -2.088,-0.144 -6.048,0 -12.384,6.048 -6.264,6.048 -10.368,15.12 -4.104,9.072 -4.104,17.352 0,6.192 2.448,10.224 2.52,3.96 7.704,3.96 6.264,0 11.448,-5.976 5.256,-5.976 8.208,-14.832 3.024,-8.928 3.024,-16.992 0,-3.96 -0.792,-7.128 -0.72,-3.24 -2.448,-3.24 -1.512,0 -3.528,2.592 -1.944,2.52 -3.6,6.12 -1.656,3.6 -2.232,6.48 -4.536,-0.936 -4.536,-4.176 0,-2.52 2.376,-5.832 2.376,-3.312 5.688,-5.688 3.312,-2.448 5.976,-2.448 3.816,0 5.328,4.824 1.512,4.824 1.512,11.088 0,11.52 -4.536,20.376 -4.536,8.784 -11.304,13.536 -6.696,4.752 -13.104,4.752 z"
         style="font-style:normal;font-variant:normal;font-weight:bold;font-stretch:normal;font-size:72px;font-family:'Dancing Script';-inkscape-font-specification:'Dancing Script Bold';fill:#010101;fill-opacity:1;stroke-width:0.26458335"
         id="path11" />
    </g>

</g> 

<g transform="translate(386.24,151.17213) scale(0.8, 0.9)"> 
</g> 

<g transform="translate(411.04,151.17213) scale(0.8, 0.9)"> 
<g
       aria-label="H"
       style="font-style:normal;font-weight:normal;font-size:10.58333397px;line-height:1.25;font-family:sans-serif;letter-spacing:0px;word-spacing:0px;fill:#010101;fill-opacity:1;stroke:none;stroke-width:0.26458335"
       id="text826">
      <path
         d="m 20.9561,252.23328 q 0.864,-5.472 2.448,-11.592 1.584,-6.12 5.04,-16.704 -3.96,0.36 -4.68,0.432 0,-2.16 1.584,-3.384 1.656,-1.296 4.68,-1.944 0.36,-1.224 0.936,-2.664 l 5.04,-14.76 q 0.072,-0.144 0.432,-1.224 0.432,-1.152 0.432,-2.232 0,-0.576 -0.216,-0.792 -0.216,-0.216 -0.72,-0.216 -1.872,0 -3.816,2.16 -1.872,2.088 -3.168,5.112 -1.296,2.952 -1.296,5.184 0,1.152 0.72,3.24 -2.88,0 -4.32,-1.224 -1.368,-1.296 -1.368,-3.528 0,-3.096 2.448,-6.336 2.52,-3.312 6.12,-5.472 3.6,-2.16 6.552,-2.16 2.16,0 3.096,1.152 0.936,1.08 0.936,2.808 0,1.224 -0.576,3.096 l -5.256,17.28 q 1.152,-0.072 3.6,-0.072 6.48,0 12.6,0.576 4.32,-14.544 7.056,-20.88 0.72,-1.584 1.8,-2.808 1.152,-1.224 3.384,-1.224 -1.512,4.104 -3.744,11.376 -2.16,7.2 -3.816,13.896 l 2.52,0.072 q 2.448,0.144 3.744,0.144 -2.016,2.016 -3.672,2.664 -1.656,0.648 -3.456,0.648 -2.088,8.856 -3.168,15.408 -1.008,6.552 -1.008,10.152 0,1.872 0.36,3.816 -3.672,-0.36 -5.04,-1.8 -1.296,-1.368 -1.296,-4.896 0,-3.24 1.08,-8.28 1.152,-5.112 4.104,-14.328 -5.688,0 -9.648,0.144 -3.888,0.072 -6.984,0.36 -0.144,0.432 -1.368,4.536 -1.224,4.104 -6.048,19.368 -0.72,2.376 -2.592,3.6 -1.8,1.296 -3.456,1.296 z"
         style="font-style:normal;font-variant:normal;font-weight:bold;font-stretch:normal;font-size:72px;font-family:'Dancing Script';-inkscape-font-specification:'Dancing Script Bold';fill:#010101;fill-opacity:1;stroke-width:0.26458335"
         id="path11" />
    </g>

</g> 

<g transform="translate(447.92,151.17213) scale(0.8, 0.9)"> 
<g
       aria-label="E"
       style="font-style:normal;font-weight:normal;font-size:10.58333397px;line-height:1.25;font-family:sans-serif;letter-spacing:0px;word-spacing:0px;fill:#010101;fill-opacity:1;stroke:none;stroke-width:0.26458335"
       id="text826">
      <path
         d="m 30.8201,252.23328 q -4.464,0 -7.992,-1.8 -3.528,-1.8 -5.472,-4.896 -1.872,-3.096 -1.872,-6.84 0,-4.248 2.376,-8.208 2.448,-4.032 6.624,-6.84 4.176,-2.808 9.36,-3.528 -2.52,-2.232 -3.888,-5.04 -1.296,-2.808 -1.296,-5.832 0,-3.816 1.944,-7.272 2.016,-3.528 5.544,-5.616 3.6,-2.16 8.136,-2.16 4.392,0 6.768,2.16 2.376,2.088 2.376,6.12 0,2.664 -1.008,5.256 -0.936,2.592 -2.448,4.248 -1.44,1.584 -2.736,1.584 -1.8,0 -3.456,-2.952 6.336,-5.184 6.336,-9.648 0,-2.088 -1.44,-3.24 -1.368,-1.152 -3.744,-1.152 -3.096,0 -5.328,1.944 -2.232,1.872 -3.384,4.968 -1.152,3.024 -1.152,6.408 0,3.384 1.224,6.48 1.296,3.024 4.104,5.184 -5.04,0.792 -8.928,3.528 -3.816,2.664 -5.976,6.408 -2.088,3.672 -2.088,7.344 0,2.448 0.936,4.752 1.008,2.304 3.096,3.816 2.088,1.584 5.328,1.584 3.816,0 7.632,-2.16 3.888,-2.16 7.128,-5.76 3.24,-3.6 5.184,-7.704 l 1.944,1.224 q -4.248,7.992 -10.368,12.816 -6.12,4.824 -13.464,4.824 z"
         style="font-style:normal;font-variant:normal;font-weight:bold;font-stretch:normal;font-size:72px;font-family:'Dancing Script';-inkscape-font-specification:'Dancing Script Bold';fill:#010101;fill-opacity:1;stroke-width:0.26458335"
         id="path11" />
    </g>

</g> 

<g transform="translate(479.36,151.17213) scale(0.8, 0.9)"> 
<g
       aria-label="R"
       style="font-style:normal;font-weight:normal;font-size:10.58333397px;line-height:1.25;font-family:sans-serif;letter-spacing:0px;word-spacing:0px;fill:#010101;fill-opacity:1;stroke:none;stroke-width:0.26458335"
       id="text826">
      <path
         d="m 52.1321,254.68128 q -2.664,0 -6.624,-4.536 -3.96,-4.464 -7.92,-10.8 -3.96,-6.336 -6.768,-12.024 -1.296,4.464 -4.32,15.264 l -2.736,9.72 q -2.232,0 -4.032,-1.224 -1.728,-1.152 -1.728,-2.952 0,-0.864 0.432,-2.232 0.432,-1.368 0.576,-1.728 5.544,-16.848 8.64,-25.272 3.168,-8.496 9,-21.816 -3.888,0.792 -8.208,3.096 -0.432,0.144 -1.08,0.504 -0.648,0.288 -0.936,0.288 -0.648,0 -1.8,-1.008 -1.08,-1.008 -1.08,-1.8 4.32,-1.728 8.568,-2.88 4.248,-1.152 8.784,-1.152 4.752,0 9.216,1.512 4.536,1.44 7.488,4.608 2.952,3.096 2.952,7.776 0,6.192 -4.968,9.648 -4.896,3.456 -11.088,4.68 -6.12,1.224 -11.232,1.368 l 1.872,2.952 q 3.456,5.544 6.048,9.216 2.592,3.672 6.336,7.704 3.816,3.96 9,7.92 -0.288,1.368 -1.728,2.232 -1.368,0.936 -2.664,0.936 z m -19.656,-33.12 q 9.144,-0.648 15.624,-4.392 6.48,-3.816 6.48,-10.584 0,-5.112 -3.672,-7.416 -3.672,-2.376 -9.216,-2.52 -4.032,8.064 -9.216,24.912 z"
         style="font-style:normal;font-variant:normal;font-weight:bold;font-stretch:normal;font-size:72px;font-family:'Dancing Script';-inkscape-font-specification:'Dancing Script Bold';fill:#010101;fill-opacity:1;stroke-width:0.26458335"
         id="path11" />
    </g>

</g> 

<g transform="translate(514.16,151.17213) scale(0.8, 0.9)"> 
<g
       aria-label="E"
       style="font-style:normal;font-weight:normal;font-size:10.58333397px;line-height:1.25;font-family:sans-serif;letter-spacing:0px;word-spacing:0px;fill:#010101;fill-opacity:1;stroke:none;stroke-width:0.26458335"
       id="text826">
      <path
         d="m 30.8201,252.23328 q -4.464,0 -7.992,-1.8 -3.528,-1.8 -5.472,-4.896 -1.872,-3.096 -1.872,-6.84 0,-4.248 2.376,-8.208 2.448,-4.032 6.624,-6.84 4.176,-2.808 9.36,-3.528 -2.52,-2.232 -3.888,-5.04 -1.296,-2.808 -1.296,-5.832 0,-3.816 1.944,-7.272 2.016,-3.528 5.544,-5.616 3.6,-2.16 8.136,-2.16 4.392,0 6.768,2.16 2.376,2.088 2.376,6.12 0,2.664 -1.008,5.256 -0.936,2.592 -2.448,4.248 -1.44,1.584 -2.736,1.584 -1.8,0 -3.456,-2.952 6.336,-5.184 6.336,-9.648 0,-2.088 -1.44,-3.24 -1.368,-1.152 -3.744,-1.152 -3.096,0 -5.328,1.944 -2.232,1.872 -3.384,4.968 -1.152,3.024 -1.152,6.408 0,3.384 1.224,6.48 1.296,3.024 4.104,5.184 -5.04,0.792 -8.928,3.528 -3.816,2.664 -5.976,6.408 -2.088,3.672 -2.088,7.344 0,2.448 0.936,4.752 1.008,2.304 3.096,3.816 2.088,1.584 5.328,1.584 3.816,0 7.632,-2.16 3.888,-2.16 7.128,-5.76 3.24,-3.6 5.184,-7.704 l 1.944,1.224 q -4.248,7.992 -10.368,12.816 -6.12,4.824 -13.464,4.824 z"
         style="font-style:normal;font-variant:normal;font-weight:bold;font-stretch:normal;font-size:72px;font-family:'Dancing Script';-inkscape-font-specification:'Dancing Script Bold';fill:#010101;fill-opacity:1;stroke-width:0.26458335"
         id="path11" />
    </g>

</g> 

 </svg>
